<svg xmlns="http://www.w3.org/2000/svg" width="49" height="49" viewBox="0 0 49 49">
  <g id="business_2" data-name="business 2" transform="translate(-810 -514)">
    <rect id="Rectangle_3680" data-name="Rectangle 3680" width="49" height="49" rx="5" transform="translate(810 514)" fill="#43bfe5"/>
    <g id="Group_25248" data-name="Group 25248">
      <g id="Group_25135" data-name="Group 25135" transform="translate(1908.685 -1614.845)">
        <g id="Group_25114" data-name="Group 25114" transform="translate(-1089.685 2140.888)">
          <path id="Path_24946" data-name="Path 24946" d="M-1062.884,2145.59h-5.172v-1.41a3.3,3.3,0,0,0-3.292-3.292h-8.463a3.3,3.3,0,0,0-3.292,3.292v1.41h-5.172a1.411,1.411,0,0,0-1.411,1.411v9.4a1.41,1.41,0,0,0,.94,1.324v6.2a1.411,1.411,0,0,0,1.411,1.41h23.509a1.41,1.41,0,0,0,1.411-1.41v-6.2a1.41,1.41,0,0,0,.94-1.324V2147A1.411,1.411,0,0,0-1062.884,2145.59Zm-19.278-1.41a2.354,2.354,0,0,1,2.351-2.352h8.463a2.354,2.354,0,0,1,2.351,2.352v1.41h-.959l.019-1.41a1.413,1.413,0,0,0-1.411-1.411h-8.481a1.413,1.413,0,0,0-1.41,1.411v0l.013,1.406h-.936Zm11.284-.007-.018,1.417h-9.39l-.015-1.41a.471.471,0,0,1,.471-.471h8.482A.47.47,0,0,1-1070.878,2144.173Zm7.523,19.755a.47.47,0,0,1-.47.47h-23.509a.47.47,0,0,1-.47-.47v-6.112h3.291v1.41a.471.471,0,0,0,.471.471h1.881a.471.471,0,0,0,.47-.471v-1.41h12.225v1.41a.471.471,0,0,0,.47.471h1.881a.471.471,0,0,0,.471-.471v-1.41h3.291Zm-20.218-5.172V2156.4a.459.459,0,0,1,.144-.335.445.445,0,0,1,.326-.135.47.47,0,0,1,.47.47v2.351Zm15.046,0V2156.4a.47.47,0,0,1,.47-.47.46.46,0,0,1,.335.144.453.453,0,0,1,.135.326v2.351Zm6.112-2.351a.47.47,0,0,1-.47.47h-3.762v-.47a1.417,1.417,0,0,0-1.411-1.411,1.41,1.41,0,0,0-1.411,1.411v.47h-12.225v-.47a1.41,1.41,0,0,0-1.411-1.411,1.419,1.419,0,0,0-1.411,1.411v.47h-3.761a.47.47,0,0,1-.471-.47V2147a.471.471,0,0,1,.471-.47h25.39a.47.47,0,0,1,.47.47Z" transform="translate(1089.685 -2140.888)" fill="#fff" stroke="#fff" stroke-width="0.5"/>
        </g>
      </g>
      <g id="Ellipse_1194" data-name="Ellipse 1194" transform="translate(840 541)" fill="#43bfe5" stroke="#fff" stroke-width="0.5">
        <circle cx="6.5" cy="6.5" r="6.5" stroke="none"/>
        <circle cx="6.5" cy="6.5" r="6.25" fill="none"/>
      </g>
      <text id="_" data-name="+" transform="translate(849.345 551.131)" fill="#fff" font-size="11" font-family="Poppins-Medium, Poppins" font-weight="500"><tspan x="-6.281" y="0">+</tspan></text>
    </g>
  </g>
</svg>
